# xmcd
#
# Track frame offsets:
#	150
#	24586
#	56295
#	73355
#	99756
#	118348
#	135095
#	151534
#	173867
#	192341
#	215398
#	237655
#	263934
#	284884
#	309620
#
# Disc length: 4422 seconds
#
# Revision: 3
# Processed by: cddbd v1.5.1PL2 Copyright (c) Steve Scherf et al.
# Submitted via: EasyCDDAExtractor 8.0.2.1
#
DISCID=da11440f
DTITLE=Dio - Concert Hall Cosmos Ekaterinburg 13-09-05 Disc 1
DYEAR=2005
DGENRE=Hard Rock
TTITLE0=Sound Check
TTITLE1=Tarot Woman
TTITLE2=The Sign Of The Southern Cross
TTITLE3=One Night In The City
TTITLE4=Evil Eyes
TTITLE5=Video Break
TTITLE6=Stand Up And Shout
TTITLE7=Holy Diver
TTITLE8=Gypsy
TTITLE9=Drum Solo
TTITLE10=Caught In The Middle
TTITLE11=Don't Talk To Strangers
TTITLE12=Straight Through The Heart
TTITLE13=Invisible
TTITLE14=Rainbow In The Dark
EXTD=
EXTT0=
EXTT1=
EXTT2=
EXTT3=
EXTT4=
EXTT5=
EXTT6=
EXTT7=
EXTT8=
EXTT9=
EXTT10=
EXTT11=
EXTT12=
EXTT13=
EXTT14=
PLAYORDER=
